<svg width="48" height="48" viewBox="0 0 48 48" fill="none" xmlns="http://www.w3.org/2000/svg">
<path d="M38.5225 28.5782C38.9343 27.2223 39.1587 25.7853 39.1587 24.2972C39.1587 24.1318 39.1526 23.9695 39.1464 23.8041C33.2357 20.383 28.7789 13.0536 26.9132 9.57527C25.905 9.37085 24.8599 9.26562 23.7903 9.26562C22.7207 9.26562 21.7463 9.36784 20.7689 9.55724C19.9359 11.0965 18.5927 13.3963 16.8284 15.7803C14.7936 18.5311 11.8767 21.82 8.43417 23.8162C8.42802 23.9755 8.42188 24.1348 8.42188 24.2972C8.42188 25.7883 8.64625 27.2283 9.0612 28.5872C11.6154 27.4117 13.933 25.6711 15.9708 23.7079C14.517 27.072 12.8972 30.3368 11.2097 32.9253C12.1195 34.1939 13.226 35.3183 14.4832 36.2563C16.3274 33.6167 18.19 30.1444 20.0588 25.8544C19.398 30.2677 18.439 34.1308 17.0559 37.8135C18.4267 38.4689 19.9144 38.9289 21.4789 39.1604C22.4686 36.6892 23.2493 34.233 23.8641 31.0373C24.4819 34.221 25.2657 36.6711 26.2554 39.1333C27.8137 38.8868 29.2922 38.4118 30.6538 37.7444C29.3168 34.1939 28.3762 30.4721 27.7123 26.1881C29.5258 30.3128 31.3362 33.6648 33.1251 36.2322C34.3822 35.2912 35.4857 34.1609 36.3924 32.8892C34.7172 30.3098 33.1097 27.069 31.6651 23.729C33.6876 25.6801 35.9836 27.4087 38.5194 28.5782H38.5225Z" fill="#171717"/>
<path fill-rule="evenodd" clip-rule="evenodd" d="M24 43.2731C34.6443 43.2731 43.2731 34.6443 43.2731 24C43.2731 13.3557 34.6443 4.72686 24 4.72686C13.3557 4.72686 4.72686 13.3557 4.72686 24C4.72686 34.6443 13.3557 43.2731 24 43.2731ZM24 48C37.2548 48 48 37.2548 48 24C48 10.7452 37.2548 0 24 0C10.7452 0 0 10.7452 0 24C0 37.2548 10.7452 48 24 48Z" fill="#171717"/>
</svg>
